<mxfile host="app.diagrams.net" modified="2024-01-16T08:30:28.211Z" agent="Mozilla/5.0 (Windows NT 10.0; Win64; x64) AppleWebKit/537.36 (KHTML, like Gecko) Chrome/120.0.0.0 Safari/537.36" version="22.1.18" etag="KGa0aKRbBuIG94Tb-CXk" type="github">
  <diagram name="第 1 页" id="DgQPs-NsUi78_pA30Q-N">
    <mxGraphModel>
      <root>
        <mxCell id="0" />
        <mxCell id="1" parent="0" />
      </root>
    </mxGraphModel>
  </diagram>
</mxfile>
